name rise38.3101peak57.3503fall81.6963.mot
datacolumns 19
datarows 12
range 2.22332800000000 2.24166600000000
endheader
time	ground_force1_vx	ground_force1_vy	ground_force1_vz	ground_force1_px	ground_force1_py	ground_force1_pz	ground_force2_vx	ground_force2_vy	ground_force2_vz	ground_force2_px	ground_force2_py	ground_force2_pz	ground_torque1_x	ground_torque1_y	ground_torque1_z	ground_torque2_x	ground_torque2_y	ground_torque2_z	
2.22332800000000	20.53809300000000	690.32533899999999	36.18580600000000	0.26274900000000	0.00000000000000	0.09739600000000	0.00000000000000	0.00000000000000	0.00000000000000	0.00000000000000	0.00000000000000	0.00000000000000	0.00000000000000	15.65857400000000	0.00000000000000	0.00000000000000	0.00000000000000	0.00000000000000	
2.22499700000000	20.14192500000000	691.06250199999999	36.20755800000000	0.26200400000000	0.00000000000000	0.09737900000000	0.00000000000000	0.00000000000000	0.00000000000000	0.00000000000000	0.00000000000000	0.00000000000000	0.00000000000000	15.73316100000000	0.00000000000000	0.00000000000000	0.00000000000000	0.00000000000000	
2.22666400000000	19.73300700000000	691.83780899999999	36.23009700000000	0.26123600000000	0.00000000000000	0.09736400000000	0.00000000000000	0.00000000000000	0.00000000000000	0.00000000000000	0.00000000000000	0.00000000000000	0.00000000000000	15.81104000000000	0.00000000000000	0.00000000000000	0.00000000000000	0.00000000000000	
2.22832500000000	19.31116900000000	692.64973199999997	36.25310500000000	0.26044500000000	0.00000000000000	0.09735000000000	0.00000000000000	0.00000000000000	0.00000000000000	0.00000000000000	0.00000000000000	0.00000000000000	0.00000000000000	15.89200800000000	0.00000000000000	0.00000000000000	0.00000000000000	0.00000000000000	
2.22999200000000	18.87627800000000	693.49678400000005	36.27627600000000	0.25962900000000	0.00000000000000	0.09733800000000	0.00000000000000	0.00000000000000	0.00000000000000	0.00000000000000	0.00000000000000	0.00000000000000	0.00000000000000	15.97586500000000	0.00000000000000	0.00000000000000	0.00000000000000	0.00000000000000	
2.23165800000000	18.42824300000000	694.37752399999999	36.29932300000000	0.25878800000000	0.00000000000000	0.09732700000000	0.00000000000000	0.00000000000000	0.00000000000000	0.00000000000000	0.00000000000000	0.00000000000000	0.00000000000000	16.06241900000000	0.00000000000000	0.00000000000000	0.00000000000000	0.00000000000000	
2.23333300000000	17.96701700000000	695.29055700000004	36.32197800000000	0.25792200000000	0.00000000000000	0.09731800000000	0.00000000000000	0.00000000000000	0.00000000000000	0.00000000000000	0.00000000000000	0.00000000000000	0.00000000000000	16.15148400000000	0.00000000000000	0.00000000000000	0.00000000000000	0.00000000000000	
2.23499700000000	17.49258900000000	696.23453700000005	36.34399000000000	0.25702900000000	0.00000000000000	0.09731000000000	0.00000000000000	0.00000000000000	0.00000000000000	0.00000000000000	0.00000000000000	0.00000000000000	0.00000000000000	16.24287800000000	0.00000000000000	0.00000000000000	0.00000000000000	0.00000000000000	
2.23666300000000	17.00499200000000	697.20817599999998	36.36512700000000	0.25611000000000	0.00000000000000	0.09730300000000	0.00000000000000	0.00000000000000	0.00000000000000	0.00000000000000	0.00000000000000	0.00000000000000	0.00000000000000	16.33643000000000	0.00000000000000	0.00000000000000	0.00000000000000	0.00000000000000	
2.23832900000000	16.50429700000000	698.21023800000000	36.38517900000000	0.25516500000000	0.00000000000000	0.09729800000000	0.00000000000000	0.00000000000000	0.00000000000000	0.00000000000000	0.00000000000000	0.00000000000000	0.00000000000000	16.43197400000000	0.00000000000000	0.00000000000000	0.00000000000000	0.00000000000000	
2.23999400000000	15.99061600000000	699.23954700000002	36.40395500000000	0.25419400000000	0.00000000000000	0.09729500000000	0.00000000000000	0.00000000000000	0.00000000000000	0.00000000000000	0.00000000000000	0.00000000000000	0.00000000000000	16.52935300000000	0.00000000000000	0.00000000000000	0.00000000000000	0.00000000000000	
2.24166600000000	15.46409800000000	700.29498699999999	36.42128700000000	0.25319600000000	0.00000000000000	0.09729200000000	0.00000000000000	0.00000000000000	0.00000000000000	0.00000000000000	0.00000000000000	0.00000000000000	0.00000000000000	16.62841500000000	0.00000000000000	0.00000000000000	0.00000000000000	0.00000000000000	
